<?xml version="1.0" standalone="no"?>
<!DOCTYPE svg PUBLIC "-//W3C//DTD SVG 20010904//EN"
 "http://www.w3.org/TR/2001/REC-SVG-20010904/DTD/svg10.dtd">
<svg version="1.0" xmlns="http://www.w3.org/2000/svg"
 width="500.000000pt" height="205.000000pt" viewBox="0 0 500.000000 205.000000"
 preserveAspectRatio="xMidYMid meet">

<g transform="translate(0.000000,205.000000) scale(0.100000,-0.100000)"
fill="#fff" stroke="none">
<path d="M470 2033 c0 -11 30 -254 36 -290 l5 -33 74 0 74 0 5 33 c6 36 36
279 36 290 0 4 -52 7 -115 7 -63 0 -115 -3 -115 -7z"/>
<path d="M443 1650 c-155 -41 -281 -138 -372 -290 -19 -32 -21 -50 -21 -190 0
-176 14 -323 31 -329 7 -2 29 -19 49 -37 79 -71 69 -191 -26 -303 -14 -18 -25
-34 -23 -36 23 -22 336 -265 343 -265 5 0 6 39 2 92 -3 50 -6 186 -6 302 l0
211 -141 60 c-104 44 -134 61 -115 63 26 3 26 4 26 88 0 46 3 84 8 84 4 0 77
-29 162 -63 l155 -64 3 -38 c4 -51 -15 -232 -28 -254 -7 -12 2 -27 43 -69 l51
-52 52 51 51 50 -13 40 c-8 22 -15 90 -17 156 l-2 116 155 63 c85 35 158 64
162 64 5 0 8 -38 8 -84 0 -84 0 -85 26 -88 19 -2 -10 -18 -114 -63 l-139 -60
-6 -300 c-3 -164 -4 -301 -2 -303 2 -3 72 49 155 114 83 66 161 126 172 135
20 16 20 16 -21 70 -49 65 -75 142 -65 196 7 36 70 114 101 124 18 6 33 159
33 333 l0 150 -41 63 c-50 76 -157 178 -227 216 -68 37 -191 67 -271 66 -36 0
-98 -9 -138 -19z"/>
<path d="M1545 1526 c-104 -38 -153 -161 -105 -260 26 -54 70 -82 153 -100 99
-20 134 -63 103 -125 -17 -33 -34 -41 -81 -41 -47 0 -64 8 -81 41 -13 26 -20
29 -64 29 -59 0 -63 -11 -27 -80 27 -55 84 -89 159 -97 76 -7 154 34 186 97
60 119 -3 244 -135 270 -32 6 -68 13 -80 16 -34 7 -57 58 -44 96 15 42 38 57
89 58 44 0 82 -25 82 -55 0 -12 13 -15 56 -15 l57 0 -7 32 c-21 106 -152 173
-261 134z"/>
<path d="M2627 1534 c-4 -7 -167 -426 -238 -611 -8 -22 -7 -23 50 -23 57 0 58
1 67 33 l10 32 112 3 113 3 15 -36 c14 -34 16 -35 69 -35 30 0 55 1 55 3 0 16
-249 637 -253 631z m41 -357 c17 -50 32 -98 32 -104 0 -9 -21 -13 -70 -13 -38
0 -70 3 -70 7 0 15 65 203 70 203 3 0 20 -42 38 -93z"/>
<path d="M4063 1524 c-26 -73 -235 -610 -239 -616 -3 -4 21 -8 53 -8 58 0 59
0 72 35 l12 35 113 0 112 0 13 -35 c12 -34 14 -35 67 -35 30 0 54 3 54 7 0 8
-240 627 -246 632 -2 2 -7 -5 -11 -15z m51 -359 c20 -55 36 -101 36 -102 0 -2
-34 -3 -75 -3 -41 0 -75 4 -75 8 0 5 14 46 30 93 17 46 33 90 36 98 7 20 9 16
48 -94z"/>
<path d="M1930 1215 l0 -315 50 0 50 0 0 130 0 130 68 0 c38 0 90 7 117 14
130 40 176 189 88 287 -48 54 -105 69 -255 69 l-118 0 0 -315z m284 184 c19
-15 26 -30 26 -54 0 -55 -35 -75 -131 -75 l-79 0 0 75 0 75 79 0 c64 0 83 -4
105 -21z"/>
<path d="M2950 1216 l0 -316 55 0 55 0 0 130 0 130 43 0 43 0 58 -130 59 -130
58 0 58 0 -36 78 c-19 42 -48 104 -63 138 l-27 60 38 22 c55 32 82 89 77 162
-5 70 -32 110 -96 142 -41 20 -65 23 -184 26 l-138 4 0 -316z m274 193 c33
-15 52 -60 37 -88 -21 -39 -52 -51 -128 -51 l-73 0 0 75 0 75 70 0 c38 0 80
-5 94 -11z"/>
<path d="M3440 1480 l0 -50 65 0 65 0 0 -265 0 -265 50 0 50 0 0 265 0 264 68
3 67 3 3 48 3 47 -185 0 -186 0 0 -50z"/>
<path d="M4400 1215 l0 -315 50 0 50 0 2 222 3 221 154 -221 155 -222 53 0 53
0 0 315 0 315 -50 0 -50 0 0 -222 -1 -223 -22 27 c-12 15 -83 115 -157 222
l-135 195 -52 1 -53 0 0 -315z"/>
<path d="M2580 758 c-81 -23 -130 -93 -130 -186 0 -82 29 -135 93 -169 37 -19
118 -19 157 0 25 13 30 13 30 1 0 -9 11 -14 30 -14 l30 0 0 105 0 105 -66 0
-65 0 3 -27 c2 -23 8 -29 36 -31 26 -3 32 -8 32 -27 0 -37 -44 -65 -101 -65
-39 0 -55 5 -80 28 -27 24 -33 37 -36 83 -4 61 8 92 49 122 33 25 98 26 134 2
25 -16 27 -16 48 5 l21 21 -23 19 c-24 20 -84 41 -112 39 -8 0 -31 -5 -50 -11z"/>
<path d="M2836 748 c5 -7 36 -53 71 -102 l63 -89 0 -83 0 -84 30 0 30 0 0 91
0 91 58 81 c81 113 79 107 38 107 -33 0 -40 -6 -83 -65 l-47 -65 -45 65 c-43
59 -49 64 -84 65 -28 0 -36 -3 -31 -12z"/>
<path d="M3210 575 l0 -185 30 0 29 0 3 113 3 112 58 -112 c52 -104 59 -113
85 -113 27 0 33 8 80 108 l50 107 1 -107 1 -108 35 0 35 0 0 185 0 185 -35 0
c-33 0 -37 -4 -59 -52 -13 -29 -43 -93 -66 -143 l-42 -90 -72 143 c-69 139
-71 142 -103 142 l-33 0 0 -185z"/>
</g>
</svg>
